<?xml version="1.0" standalone="no"?>
<!DOCTYPE svg PUBLIC "-//W3C//DTD SVG 20010904//EN"
 "http://www.w3.org/TR/2001/REC-SVG-20010904/DTD/svg10.dtd">
<svg version="1.0" xmlns="http://www.w3.org/2000/svg"
 width="260.000000pt" height="260.000000pt" viewBox="0 0 260.000000 260.000000"
 preserveAspectRatio="xMidYMid meet">
<metadata>
Created by potrace 1.11, written by Peter Selinger 2001-2013
</metadata>
<g transform="translate(0.000000,260.000000) scale(0.100000,-0.100000)"
fill="#000000" stroke="none">
<path d="M455 1940 c-74 -24 -120 -59 -161 -124 -25 -39 -27 -50 -27 -131 -1
-104 43 -174 143 -230 77 -43 230 -24 300 38 25 23 84 97 77 97 -2 0 1 21 8
47 16 63 -6 170 -40 195 -5 4 -7 8 -2 8 17 0 -73 71 -114 88 -44 19 -143 26
-184 12z"/>
<path d="M1210 1941 c-140 -44 -217 -171 -187 -309 41 -196 297 -268 455 -127
76 67 101 216 52 299 -41 67 -90 109 -155 132 -38 13 -131 16 -165 5z"/>
<path d="M1968 1940 c-10 -6 -18 -8 -18 -5 0 9 -55 -22 -90 -51 -17 -15 -44
-46 -58 -68 -23 -36 -27 -52 -27 -121 0 -124 42 -190 154 -241 83 -38 194 -29
264 21 53 38 64 50 89 96 22 39 26 57 24 115 -3 92 -9 109 -53 162 -55 65
-113 93 -198 98 -41 3 -77 0 -87 -6z"/>
<path d="M110 1106 c-8 -11 -35 -62 -62 -112 l-47 -92 82 -35 c179 -77 463
-154 667 -182 14 -2 39 -6 56 -9 16 -3 68 -8 115 -12 46 -3 107 -8 134 -10 61
-5 443 -5 505 0 25 2 81 7 125 10 102 8 133 12 170 19 17 4 47 9 68 12 21 3
73 12 115 21 42 9 87 18 99 20 53 10 294 89 375 122 63 27 88 42 88 54 0 10
-23 62 -52 116 -46 87 -55 98 -75 94 -13 -2 -23 -8 -23 -12 0 -4 -8 -10 -17
-13 -10 -3 -56 -19 -103 -37 -47 -17 -94 -33 -104 -35 -11 -3 -40 -11 -65 -19
-100 -33 -288 -70 -411 -81 -36 -3 -72 -8 -80 -10 -18 -5 -303 -18 -380 -18
-116 1 -383 18 -450 28 -133 21 -174 28 -230 41 -36 9 -76 18 -90 20 -14 3
-41 10 -60 16 -42 13 -65 20 -65 18 0 -2 -169 62 -216 83 l-56 24 -13 -21z"/>
</g>
</svg>
