<svg xmlns="http://www.w3.org/2000/svg" width="24" height="24" viewBox="0 0 24 24">
    <g fill="none" fill-rule="evenodd">
        <path d="M0 0h24v24H0z"/>
        <path fill="#000" d="M18.29 7.11a.997.997 0 0 0 .002-1.418l.016.016a1.002 1.002 0 0 0-1.417.001L12 10.6 7.11 5.71a.997.997 0 0 0-1.418-.002l.016-.016a1.002 1.002 0 0 0 .001 1.417L10.6 12l-4.89 4.89a.997.997 0 0 0-.002 1.418l-.016-.016a1.002 1.002 0 0 0 1.417-.001L12 13.4l4.89 4.89a.997.997 0 0 0 1.418.002l-.016.016a1.002 1.002 0 0 0-.001-1.417L13.4 12l4.89-4.89z"/>
    </g>
</svg>
