<svg xmlns="http://www.w3.org/2000/svg" width="24" height="24" viewBox="0 0 24 24">
    <g fill="none" fill-rule="evenodd">
        <path d="M0 24h24V0H0z"/>
        <g fill="#000">
            <path d="M11.304 15.692a1.048 1.048 0 0 1-.003-1.473l5.92-5.914a1.041 1.041 0 0 1 1.475.003c.408.408.402 1.075.003 1.473l-5.92 5.914a1.041 1.041 0 0 1-1.475-.003z"/>
            <path d="M12.696 15.692a1.048 1.048 0 0 0 .003-1.473l-5.92-5.914a1.041 1.041 0 0 0-1.475.003 1.048 1.048 0 0 0-.003 1.473l5.92 5.914a1.041 1.041 0 0 0 1.475-.003z"/>
        </g>
    </g>
</svg>
